<?xml version="1.0" encoding="UTF-8"?>
<svg width="24px" height="19px" viewBox="0 0 24 19" version="1.1" xmlns="http://www.w3.org/2000/svg" xmlns:xlink="http://www.w3.org/1999/xlink">
    <!-- Generator: Sketch 46.2 (44496) - http://www.bohemiancoding.com/sketch -->
    <title>computer</title>
    <desc>Created with Sketch.</desc>
    <defs></defs>
    <g id="Page-1" stroke="none" stroke-width="1" fill="none" fill-rule="evenodd">
        <g id="Desktop" transform="translate(-757.000000, -3523.000000)" fill-rule="nonzero" fill="#000000">
            <g id="newsSeaboard" transform="translate(-348.000000, 2937.000000)">
                <g id="caract" transform="translate(1105.000000, 299.000000)">
                    <g id="computer" transform="translate(0.000000, 287.000000)">
                        <path d="M3.34094575,14.7067273 C2.94070174,14.7067273 2.61623987,14.3728506 2.61623987,13.9609927 L2.61623987,0.778682061 C2.61623987,0.366824173 2.94070174,0.0329473807 3.34094575,0.0329473807 L20.7262624,0.0329473807 C21.1265064,0.0329473807 21.4509683,0.366824173 21.4509683,0.778682061 L21.4509683,13.9609927 C21.4509683,14.3728506 21.1265064,14.7067273 20.7262624,14.7067273 L3.34094575,14.7067273 Z M20.0015565,13.215258 L20.0015565,1.52441675 L4.06565163,1.52441675 L4.06565163,13.215258 L20.0015565,13.215258 Z" id="Stroke-2"></path>
                        <path d="M21.7443712,16.8175432 L20.3435801,14.7066306 L3.72362809,14.7066306 L2.32283694,16.8175432 L21.7443712,16.8175432 Z M23.1167853,18.3090125 L0.95042288,18.3090125 C0.367947148,18.3090125 0.023469835,17.6377281 0.351938807,17.1427441 L2.74246168,13.5403622 C2.87749448,13.3368755 3.1014914,13.2151613 3.34094575,13.2151613 L20.7262624,13.2151613 C20.9657168,13.2151613 21.1897137,13.3368755 21.3247465,13.5403622 L23.7152694,17.1427441 C24.0437383,17.6377281 23.699261,18.3090125 23.1167853,18.3090125 Z" id="Stroke-5"></path>
                    </g>
                </g>
            </g>
        </g>
    </g>
</svg>