<?xml version="1.0" encoding="UTF-8"?>
<svg width="24px" height="25px" viewBox="0 0 24 25" version="1.1" xmlns="http://www.w3.org/2000/svg" xmlns:xlink="http://www.w3.org/1999/xlink">
    <!-- Generator: Sketch 46.2 (44496) - http://www.bohemiancoding.com/sketch -->
    <title>wireless</title>
    <desc>Created with Sketch.</desc>
    <defs></defs>
    <g id="Page-1" stroke="none" stroke-width="1" fill="none" fill-rule="evenodd">
        <g id="Desktop" transform="translate(-758.000000, -3414.000000)" fill-rule="nonzero" fill="#000000">
            <g id="newsSeaboard" transform="translate(-348.000000, 2937.000000)">
                <g id="caract" transform="translate(1105.000000, 299.000000)">
                    <g id="wireless" transform="translate(1.000000, 178.000000)">
                        <g id="Icon-32x32/Lightpad/Active-Light-Black">
                            <path d="M1.69673877,3.51157336 L1.69673877,20.9976446 C1.69673877,21.9711754 2.4601329,22.7585595 3.40341816,22.7585595 L20.3509247,22.7585595 C21.294471,22.7585595 22.0576041,21.9709059 22.0576041,20.9976446 L22.0576041,3.51157336 C22.0576041,2.53804255 21.29421,1.75065843 20.3509247,1.75065843 L3.40341816,1.75065843 C2.45987176,1.75065843 1.69673877,2.538312 1.69673877,3.51157336 Z M0,3.51157336 C0,1.57218494 1.52207671,0 3.40341816,0 L20.3509247,0 C22.2305807,0 23.7543428,1.57044586 23.7543428,3.51157336 L23.7543428,20.9976446 C23.7543428,22.937033 22.2322662,24.5092179 20.3509247,24.5092179 L3.40341816,24.5092179 C1.52376221,24.5092179 0,22.9387721 0,20.9976446 L0,3.51157336 Z" id="Rectangle-2"></path>
                        </g>
                        <g id="Group-3" transform="translate(4.051667, 5.586147)">
                            <g id="Group-2">
                                <path d="M11.8195348,8.82359776 C12.0902815,8.6173293 12.1417615,8.22434389 11.9463281,7.94768998 C11.4887281,7.30444521 10.8785948,6.77753194 10.1778948,6.41973925 C9.50293479,6.06683444 8.73550146,5.86545386 7.93470145,5.86545386 C7.13390146,5.86545386 6.37504812,6.06683444 5.69627479,6.41973925 C4.99938813,6.78144224 4.38925479,7.30835551 3.92784145,7.94768998 C3.73622146,8.22434389 3.78865479,8.62221718 4.05844813,8.82750806 C4.33300812,9.03377652 4.72006146,8.9663238 4.91263479,8.69846808 C5.26536812,8.21163541 5.72296812,7.8147397 6.24539479,7.53710821 C6.75066146,7.27805067 7.33505479,7.13043674 7.93565478,7.13043674 C8.55436812,7.13043674 9.12446146,7.27805067 9.63449479,7.53710821 C10.1569215,7.8147397 10.6097548,8.21163541 10.9586748,8.69846808 C11.1665015,8.9663238 11.5459281,9.02888864 11.8195348,8.82359776 Z" id="Shape"></path>
                                <path d="M0.203612792,4.52519765 C0.461012793,4.75297278 0.852832792,4.72560066 1.07114613,4.46752069 C1.92437946,3.46648323 2.98734613,2.64434212 4.18949946,2.0910343 C5.33921945,1.55532285 6.62049946,1.25129682 7.97041946,1.25129682 C9.32129279,1.25129682 10.6101995,1.55532285 11.7599195,2.0910343 C12.9620728,2.64531969 14.0259928,3.46648323 14.8792261,4.46752069 C15.1051661,4.72657824 15.4893595,4.75297278 15.7410394,4.52519765 C15.9936728,4.29644495 16.0194128,3.89954924 15.8020528,3.64537958 C14.8258395,2.50161607 13.6236861,1.57291921 12.2642328,0.938472618 C10.9533995,0.339218748 9.49861279,0 7.96946613,0 C6.44031946,0 4.99029946,0.339218748 3.68327946,0.938472618 C2.3257328,1.57291921 1.11881279,2.50161607 0.147366126,3.64537958 C-0.0699938745,3.89954924 -0.0433005412,4.29742253 0.203612792,4.52519765 Z" id="Shape"></path>
                                <path d="M11.2262269,3.67372927 C10.2280869,3.19569478 9.1269869,2.93272693 7.95820024,2.93272693 C6.79990024,2.93272693 5.69308024,3.19667235 4.69970691,3.67372927 C3.6729669,4.16936012 2.76634692,4.8927661 2.04753357,5.77747205 C1.8339869,6.04141748 1.86449358,6.43831319 2.13047358,6.65729013 C2.38310691,6.88017738 2.77111358,6.84498466 2.98466024,6.57615135 C3.59479358,5.83514902 4.35650691,5.22318666 5.22404024,4.80771702 C6.04676691,4.40593343 6.9791269,4.18695648 7.95915357,4.18695648 C8.94871357,4.18695648 9.87535357,4.40593343 10.7038002,4.80771702 C11.5703802,5.22318666 12.3330469,5.83514902 12.9384136,6.57615135 C13.1519602,6.84400708 13.5399669,6.88017738 13.7964136,6.65729013 C14.0576269,6.43831319 14.0929003,6.0404399 13.8755403,5.77747205 C13.1557736,4.8927661 12.2539202,4.16936012 11.2262269,3.67372927 Z" id="Shape"></path>
                            </g>
                            <ellipse id="Oval" cx="8.10333333" cy="11.1722931" rx="1.35055556" ry="1.39653663"></ellipse>
                        </g>
                    </g>
                </g>
            </g>
        </g>
    </g>
</svg>