<?xml version="1.0" encoding="UTF-8"?>
<svg width="24px" height="19px" viewBox="0 0 24 19" version="1.1" xmlns="http://www.w3.org/2000/svg" xmlns:xlink="http://www.w3.org/1999/xlink">
    <!-- Generator: Sketch 46.2 (44496) - http://www.bohemiancoding.com/sketch -->
    <title>07_Icon_Keywave</title>
    <desc>Created with Sketch.</desc>
    <defs></defs>
    <g id="Page-1" stroke="none" stroke-width="1" fill="none" fill-rule="evenodd">
        <g id="Desktop" transform="translate(-757.000000, -3303.000000)" fill-rule="nonzero" fill="#000000">
            <g id="newsSeaboard" transform="translate(-348.000000, 2937.000000)">
                <g id="caract" transform="translate(1105.000000, 299.000000)">
                    <g id="07_Icon_Keywave" transform="translate(0.000000, 67.000000)">
                        <path d="M7.29778824,4.74212042 L7.29778824,10.1616866 C7.29778824,10.495014 7.52383001,10.7652292 7.80266667,10.7652292 C8.08150332,10.7652292 8.3075451,10.495014 8.3075451,10.1616866 L8.3075451,4.74212042 C8.3075451,4.40879304 8.08150332,4.13857781 7.80266667,4.13857781 C7.52383001,4.13857781 7.29778824,4.40879304 7.29778824,4.74212042 Z" id="Line"></path>
                        <path d="M5.0684549,6.09701197 L5.0684549,14.2263612 C5.0684549,14.5596885 5.29449667,14.8299038 5.57333333,14.8299038 C5.85216999,14.8299038 6.07821176,14.5596885 6.07821176,14.2263612 L6.07821176,6.09701197 C6.07821176,5.76368457 5.85216999,5.49346937 5.57333333,5.49346937 C5.29449667,5.49346937 5.0684549,5.76368457 5.0684549,6.09701197 Z" id="Line-Copy-5"></path>
                        <path d="M9.52712156,6.09701197 L9.52712156,14.2263612 C9.52712156,14.5596885 9.75316334,14.8299038 10.032,14.8299038 C10.3108367,14.8299038 10.5368784,14.5596885 10.5368784,14.2263612 L10.5368784,6.09701197 C10.5368784,5.76368457 10.3108367,5.49346937 10.032,5.49346937 C9.75316334,5.49346937 9.52712156,5.76368457 9.52712156,6.09701197 Z" id="Line-Copy-6"></path>
                        <path d="M13.9857882,6.09701197 L13.9857882,14.2263612 C13.9857882,14.5596885 14.21183,14.8299038 14.4906666,14.8299038 C14.7695034,14.8299038 14.995545,14.5596885 14.995545,14.2263612 L14.995545,6.09701197 C14.995545,5.76368457 14.7695034,5.49346937 14.4906666,5.49346937 C14.21183,5.49346937 13.9857882,5.76368457 13.9857882,6.09701197 Z" id="Line-Copy-7"></path>
                        <path d="M18.4444549,6.09701197 L18.4444549,14.2263612 C18.4444549,14.5596885 18.6704967,14.8299038 18.9493333,14.8299038 C19.22817,14.8299038 19.4542118,14.5596885 19.4542118,14.2263612 L19.4542118,6.09701197 C19.4542118,5.76368457 19.22817,5.49346937 18.9493333,5.49346937 C18.6704967,5.49346937 18.4444549,5.76368457 18.4444549,6.09701197 Z" id="Line-Copy-8"></path>
                        <path d="M11.7564549,4.74212042 L11.7564549,10.1616866 C11.7564549,10.495014 11.9824967,10.7652292 12.2613333,10.7652292 C12.54017,10.7652292 12.7662118,10.495014 12.7662118,10.1616866 L12.7662118,4.74212042 C12.7662118,4.40879304 12.54017,4.13857781 12.2613333,4.13857781 C11.9824967,4.13857781 11.7564549,4.40879304 11.7564549,4.74212042 Z" id="Line-Copy"></path>
                        <path d="M16.2151215,4.74212042 L16.2151215,10.1616866 C16.2151215,10.495014 16.4411633,10.7652292 16.72,10.7652292 C16.9988367,10.7652292 17.2248784,10.495014 17.2248784,10.1616866 L17.2248784,4.74212042 C17.2248784,4.40879304 16.9988367,4.13857781 16.72,4.13857781 C16.4411633,4.13857781 16.2151215,4.40879304 16.2151215,4.74212042 Z" id="Line-Copy-2"></path>
                        <path d="M1.99984314,3.43504894 L1.99984314,15.5334328 C1.99984314,16.4671993 2.65241634,17.2440743 3.45109102,17.2440743 L21.0715757,17.2440743 C21.877488,17.2440743 22.5228236,16.4773445 22.5228236,15.5334328 L22.5228236,3.43504894 C22.5228236,2.50128236 21.8702503,1.72440743 21.0715757,1.72440743 L3.45109102,1.72440743 C2.64517874,1.72440743 1.99984314,2.49113714 1.99984314,3.43504894 Z M0.557333333,3.43504894 C0.557333333,1.53792379 1.84919183,0 3.45109102,0 L21.0715757,0 C22.6697539,0 23.9653334,1.55227046 23.9653334,3.43504894 L23.9653334,15.5334328 C23.9653334,17.4305578 22.6734749,18.9684816 21.0715757,18.9684816 L3.45109102,18.9684816 C1.85291278,18.9684816 0.557333333,17.4162111 0.557333333,15.5334328 L0.557333333,3.43504894 Z" id="Rectangle-2"></path>
                    </g>
                </g>
            </g>
        </g>
    </g>
</svg>