<?xml version="1.0" encoding="UTF-8"?>
<svg width="24px" height="25px" viewBox="0 0 24 25" version="1.1" xmlns="http://www.w3.org/2000/svg" xmlns:xlink="http://www.w3.org/1999/xlink">
    <!-- Generator: Sketch 46.2 (44496) - http://www.bohemiancoding.com/sketch -->
    <title>sound</title>
    <desc>Created with Sketch.</desc>
    <defs></defs>
    <g id="Page-1" stroke="none" stroke-width="1" fill="none" fill-rule="evenodd">
        <g id="Desktop" transform="translate(-758.000000, -3364.000000)" fill-rule="nonzero" fill="#000000">
            <g id="newsSeaboard" transform="translate(-348.000000, 2937.000000)">
                <g id="caract" transform="translate(1105.000000, 299.000000)">
                    <g id="sound" transform="translate(1.000000, 128.000000)">
                        <g id="Group">
                            <path d="M13.9512,0.264066116 C13.44,0.0427107438 12.8556,0.134347107 12.4416,0.510413223 L5.6652,6.66076033 C5.5368,6.77857851 5.3652,6.83689256 5.19,6.83689256 L2.958,6.83689256 C1.422,6.83689256 0.1716,8.0888595 0.1716,9.61216529 L0.1716,15.1127273 C0.1716,16.6360331 1.4208,17.888 2.958,17.888 L5.19,17.888 C5.3652,17.888 5.532,17.946314 5.6604,18.0641322 L12.4332,24.2180496 C12.6972,24.4584463 13.0296,24.5822149 13.3668,24.5822149 C13.5576,24.5822149 13.7664,24.5417521 13.95,24.4620165 C14.4624,24.238281 14.7984,23.7539174 14.7984,23.1981488 L14.7984,1.52793388 C14.7996,0.972165289 14.4636,0.487801653 13.9512,0.264066116 Z M6.6024,17.0442314 C6.216,16.693157 5.7144,16.506314 5.19,16.506314 L2.958,16.506314 C2.19,16.506314 1.5648,15.8743802 1.5648,15.1127273 L1.5648,9.61216529 C1.5648,8.8505124 2.19,8.21857851 2.958,8.21857851 L5.19,8.21857851 C5.7144,8.21857851 6.216,8.03173554 6.6024,7.68066116 L13.3716,1.51960331 L13.3752,23.1957686 L6.6024,17.0442314 Z" id="Shape"></path>
                            <path d="M17.3712,6.3953719 C17.1168,6.10856198 16.6764,6.07880992 16.3884,6.33110744 C16.0992,6.58221488 16.0692,7.01897521 16.3224,7.30578512 C18.8664,10.1881653 18.8664,14.5367273 16.3224,17.4191074 C16.0692,17.7059174 16.0992,18.1426777 16.3884,18.3937851 C16.5204,18.5080331 16.6836,18.565157 16.8468,18.565157 C17.0412,18.565157 17.2332,18.4854215 17.3712,18.3295207 C20.3724,14.9270744 20.3724,9.79781818 17.3712,6.3953719 Z" id="Shape"></path>
                            <path d="M20.1384,2.93818182 C19.878,2.6585124 19.4364,2.64185124 19.1544,2.89890909 C18.8724,3.15715702 18.8544,3.59510744 19.116,3.87477686 C23.5452,8.63391736 23.5452,16.0909752 19.116,20.8501157 C18.8544,21.1309752 18.8724,21.5677355 19.1544,21.8259835 C19.2888,21.948562 19.458,22.0092562 19.6272,22.0092562 C19.8144,22.0092562 20.0016,21.934281 20.1384,21.7867107 C25.0572,16.5027438 25.0572,8.22333884 20.1384,2.93818182 Z" id="Shape"></path>
                        </g>
                    </g>
                </g>
            </g>
        </g>
    </g>
</svg>