<?xml version="1.0" encoding="UTF-8"?>
<svg width="49px" height="48px" viewBox="0 0 49 48" version="1.1" xmlns="http://www.w3.org/2000/svg" xmlns:xlink="http://www.w3.org/1999/xlink">
    <!-- Generator: Sketch 46.2 (44496) - http://www.bohemiancoding.com/sketch -->
    <title>instagram (1)</title>
    <desc>Created with Sketch.</desc>
    <defs></defs>
    <g id="Page-1" stroke="none" stroke-width="1" fill="none" fill-rule="evenodd">
        <g id="Desktop" transform="translate(-929.000000, -9225.000000)" fill-rule="nonzero" fill="#FFFFFF">
            <g id="footer" transform="translate(0.000000, 8925.000000)">
                <g id="txtfooter" transform="translate(216.000000, 247.000000)">
                    <g id="followus" transform="translate(543.000000, 0.000000)">
                        <g id="social" transform="translate(0.000000, 53.000000)">
                            <g id="instagram-(1)" transform="translate(170.666667, 0.000000)">
                                <path d="M28.2106931,20.8918812 C27.260198,19.5611881 25.7013861,18.6867327 23.9524752,18.6867327 C22.2035644,18.6867327 20.6447525,19.5611881 19.6942574,20.8918812 C19.0859406,21.7663366 18.7057426,22.8308911 18.7057426,23.9714851 C18.7057426,26.8609901 21.0629703,29.2182178 23.9524752,29.2182178 C26.8419802,29.2182178 29.1992079,26.8609901 29.1992079,23.9714851 C29.1992079,22.8308911 28.8190099,21.7663366 28.2106931,20.8918812 Z" id="Shape"></path>
                                <path d="M31.5184158,20.929901 C31.8986139,21.690297 32.1267327,22.9069307 32.1267327,23.9714851 C32.1267327,28.4578218 28.4768317,32.1457426 23.9524752,32.1457426 C19.4281188,32.1457426 15.7782178,28.4958416 15.7782178,23.9714851 C15.7782178,22.8689109 16.0063366,21.690297 16.3865347,20.929901 L11.7861386,20.929901 L11.7861386,33.1342574 C11.7861386,34.7310891 13.1928713,36.1378218 14.789703,36.1378218 L33.1152475,36.1378218 C34.7120792,36.1378218 36.1188119,34.7310891 36.1188119,33.1342574 L36.1188119,20.929901 L31.5184158,20.929901 Z" id="Shape"></path>
                                <polygon id="Shape" points="34.750099 12.489505 30.339802 12.489505 30.339802 17.5461386 35.3584158 17.5461386 35.3584158 13.1358416 35.3584158 12.4514851"></polygon>
                                <path d="M35.8906931,0.019009901 L12.0142574,0.019009901 C5.39881188,0.019009901 0,5.41782178 0,12.0332673 L0,35.9477228 C0,42.5251485 5.39881188,47.9239604 12.0142574,47.9239604 L35.9287129,47.9239604 C42.5441584,47.9239604 47.9429703,42.5251485 47.9429703,35.909703 L47.9429703,12.0332673 C47.9049505,5.41782178 42.5061386,0.019009901 35.8906931,0.019009901 Z M38.780198,20.8918812 L38.780198,20.8918812 L38.780198,33.1342574 C38.780198,36.3279208 36.3089109,38.7992079 33.1152475,38.7992079 L14.789703,38.7992079 C11.5960396,38.7992079 9.12475248,36.3279208 9.12475248,33.1342574 L9.12475248,20.8918812 L9.12475248,14.8087129 C9.12475248,11.6150495 11.5960396,9.14376238 14.789703,9.14376238 L33.1152475,9.14376238 C36.3089109,9.14376238 38.780198,11.6150495 38.780198,14.8087129 L38.780198,20.8918812 Z" id="Shape"></path>
                            </g>
                        </g>
                    </g>
                </g>
            </g>
        </g>
    </g>
</svg>