<?xml version="1.0" encoding="UTF-8"?>
<svg width="94px" height="94px" viewBox="0 0 94 94" version="1.1" xmlns="http://www.w3.org/2000/svg" xmlns:xlink="http://www.w3.org/1999/xlink">
    <!-- Generator: Sketch 46.2 (44496) - http://www.bohemiancoding.com/sketch -->
    <title>Group</title>
    <desc>Created with Sketch.</desc>
    <defs></defs>
    <g id="Page-1" stroke="none" stroke-width="1" fill="none" fill-rule="evenodd" fill-opacity="0.5">
        <g id="iPhone-7" transform="translate(-216.000000, -8086.000000)" fill-rule="nonzero" fill="#898D90">
            <g id="block_tech" transform="translate(0.000000, 7534.000000)">
                <g id="include" transform="translate(63.000000, 405.000000)">
                    <g id="usb" transform="translate(149.000000, 146.000000)">
                        <g id="warrantly" transform="translate(4.000000, 0.000000)">
                            <g id="Group" transform="translate(0.000000, 0.651391)">
                                <path d="M47,0.383009362 C27.8590809,0.383009362 12.2765957,15.9654945 12.2765957,35.1064545 C12.2765957,41.9025396 14.2477004,48.2563404 17.6382979,53.6171234 L0.563830094,78.2872851 C-0.153710179,79.3154763 -0.172444193,80.6770806 0.516536509,81.7246238 C1.20551721,82.772167 2.46318495,83.2942678 3.69148957,83.0426553 L16.2340426,80.5213277 L19.5531915,92.1064851 C19.8889754,93.2600342 20.8679282,94.110915 22.0570052,94.282736 C23.2460821,94.4545569 24.425864,93.915612 25.0744681,92.9043064 L40.2659574,69.1596255 C42.4464034,69.5905021 44.6953974,69.8298894 47,69.8298894 C49.3029991,69.8298894 51.5550162,69.5898894 53.7340426,69.1596255 L68.9255319,92.9043064 C69.574136,93.915612 70.7539179,94.4545569 71.9429948,94.282736 C73.1320718,94.110915 74.1110246,93.2600342 74.4468085,92.1064851 L77.7659574,80.5213277 L90.3085106,83.0426553 C91.5368153,83.2942679 92.7944831,82.772167 93.4834638,81.7246239 C94.1724445,80.6770807 94.1537105,79.3154763 93.4361702,78.2872851 L76.3617021,53.6171234 C79.7522996,48.2563404 81.7234043,41.9025396 81.7234043,35.1064545 C81.7234043,15.9654945 66.1409191,0.383009362 47,0.383009362 Z M47,6.51066894 C62.8292868,6.51066894 75.5957447,19.2771268 75.5957447,35.1064545 C75.5957447,50.9357617 62.8292868,63.7022298 47,63.7022298 C31.1707132,63.7022298 18.4042553,50.9357617 18.4042553,35.1064545 C18.4042553,19.2771268 31.1707132,6.51066894 47,6.51066894 Z M46.7446809,13.6596051 C45.6742762,13.7527737 44.7304922,14.3940629 44.2553191,15.3510945 L39.2765957,25.3723609 L28.1702128,26.9681055 C27.0167924,27.1408641 26.0611263,27.9468675 25.7027073,29.0491858 C25.3442883,30.1515041 25.6448397,31.3603071 26.4787234,32.1702843 L34.5212766,39.9575183 L32.606383,50.9362723 C32.4192889,52.0792052 32.8993118,53.2288935 33.8459153,53.9050389 C34.7925188,54.5811843 36.0428123,54.6674362 37.0744681,54.1277617 L47,48.9575489 L56.9255319,54.1277617 C57.4718913,54.4213667 58.094993,54.5437438 58.712766,54.4787745 C59.551068,54.3831283 60.3129504,53.9495725 60.8198906,53.2796968 C61.3268309,52.6098212 61.5342757,51.7624988 61.393617,50.9362723 L59.5106383,39.9575183 L67.5531915,32.1702843 C68.3883986,31.3559548 68.6855985,30.1413555 68.3198178,29.0372287 C67.954037,27.9331019 66.9887208,27.1309599 65.8297872,26.9681055 L54.7234043,25.3723609 L49.7765957,15.3510945 C49.2149304,14.2193704 48.0101692,13.5472405 46.7446809,13.6596051 L46.7446809,13.6596051 Z M47,23.6170928 L49.9361702,29.4894332 C50.3896225,30.3903326 51.2612713,31.0112331 52.2659574,31.1490077 L58.7765957,32.1064545 L54.0531915,36.7021991 C53.3436957,37.403282 53.0222222,38.4034217 53.1914894,39.3830502 L54.3085106,45.8617532 L48.4361702,42.7978928 C47.5375559,42.3265183 46.4624441,42.3265183 45.5638298,42.7978928 L39.7234043,45.8298894 L40.8404255,39.3830502 C41.0096927,38.4034217 40.6882192,37.403282 39.9787234,36.7021991 L35.2234043,32.1064545 L41.7659574,31.1490077 C42.7706436,31.0112331 43.6422924,30.3903326 44.0957447,29.4894332 L47,23.6170928 Z M21.5638298,58.7235064 C25.040337,62.4644426 29.3528,65.4140936 34.1702128,67.3405277 L23.5744681,83.9043064 L21.3404255,76.1170723 C20.905092,74.5813787 19.363738,73.6371258 17.7978723,73.9468596 L9.91489362,75.5107404 L21.5638298,58.7235064 L21.5638298,58.7235064 Z M72.4361702,58.7235064 L84.0851064,75.5107404 L76.2021277,73.9468596 C74.636262,73.6371258 73.094908,74.5813787 72.6595745,76.1170723 L70.4255319,83.9043064 L59.8297872,67.3405277 C64.6518264,65.4142979 68.956926,62.4674043 72.4361702,58.7235064 L72.4361702,58.7235064 Z" id="Shape"></path>
                            </g>
                        </g>
                    </g>
                </g>
            </g>
        </g>
    </g>
</svg>