<?xml version="1.0" encoding="utf-8"?>
<!-- Generator: Adobe Illustrator 22.0.0, SVG Export Plug-In . SVG Version: 6.00 Build 0)  -->
<svg version="1.1"
	 id="Calque_1" xmlns:cc="http://creativecommons.org/ns#" xmlns:dc="http://purl.org/dc/elements/1.1/" xmlns:inkscape="http://www.inkscape.org/namespaces/inkscape" xmlns:rdf="http://www.w3.org/1999/02/22-rdf-syntax-ns#" xmlns:sodipodi="http://sodipodi.sourceforge.net/DTD/sodipodi-0.dtd" xmlns:svg="http://www.w3.org/2000/svg"
	 xmlns="http://www.w3.org/2000/svg" xmlns:xlink="http://www.w3.org/1999/xlink" x="0px" y="0px" viewBox="0 0 100 125"
	 style="enable-background:new 0 0 100 125;" xml:space="preserve">
<style type="text/css">
	.st0{fill:#FFFFFF;}
</style>
<g transform="translate(0,-952.36218)">
	<path class="st0" d="M50,956.4c-18.7,0-34,15.3-34,34c0,6.7,1.9,12.9,5.2,18.1l-16.7,24.2c-0.9,1.4-0.6,3.2,0.7,4.2
		c0.7,0.5,1.5,0.6,2.3,0.5l12.3-2.5l3.2,11.3c0.5,1.6,2.1,2.5,3.7,2c0.7-0.2,1.3-0.7,1.7-1.3l14.9-23.2c2.1,0.4,4.3,0.7,6.6,0.7
		s4.5-0.2,6.6-0.7l14.9,23.2c0.9,1.4,2.8,1.8,4.1,0.9c0.6-0.4,1.1-1,1.3-1.7l3.2-11.3l12.3,2.5c1.6,0.3,3.2-0.7,3.5-2.3
		c0.2-0.8,0-1.6-0.5-2.3l-16.7-24.2c3.3-5.2,5.2-11.5,5.2-18.1C84,971.6,68.7,956.4,50,956.4z M48.4,962.4
		c15.5-0.9,28.7,10.9,29.5,26.4c0.9,15.5-10.9,28.7-26.4,29.5S22.9,1007.4,22,992S33,963.3,48.4,962.4L48.4,962.4z M49.8,969.4
		c-1,0.1-2,0.7-2.4,1.7l-4.9,9.8l-10.9,1.6c-1.6,0.2-2.8,1.8-2.5,3.4c0.1,0.6,0.4,1.2,0.9,1.7l7.9,7.6L36,1006
		c-0.3,1.6,0.8,3.2,2.5,3.4c0.6,0.1,1.3,0,1.9-0.3l9.7-5.1l9.7,5.1c0.5,0.3,1.1,0.4,1.8,0.3c1.7-0.2,2.8-1.7,2.6-3.3
		c0-0.1,0-0.1,0-0.2l-1.8-10.8l7.9-7.6c1.2-1.2,1.2-3,0-4.2c-0.5-0.5-1.1-0.8-1.7-0.9l-10.9-1.6l-4.8-9.8
		C52.2,969.9,51,969.3,49.8,969.4z M50,979.1l2.9,5.8c0.4,0.9,1.3,1.5,2.3,1.6l6.4,0.9l-4.6,4.5c-0.7,0.7-1,1.7-0.8,2.6l1.1,6.3
		l-5.8-3c-0.9-0.5-1.9-0.5-2.8,0l-5.7,3l1.1-6.3c0.2-1-0.1-1.9-0.8-2.6l-4.7-4.5l6.4-0.9c1-0.1,1.8-0.7,2.3-1.6L50,979.1z
		 M25.1,1013.5c3.4,3.7,7.6,6.6,12.3,8.4L27,1038.1l-2.2-7.6c-0.4-1.5-1.9-2.4-3.5-2.1l-7.7,1.5L25.1,1013.5z M74.9,1013.5
		l11.4,16.4l-7.7-1.5c-1.5-0.3-3,0.6-3.5,2.1l-2.2,7.6l-10.4-16.2C67.3,1020.1,71.5,1017.2,74.9,1013.5L74.9,1013.5z"/>
</g>
</svg>
