<?xml version="1.0" encoding="UTF-8"?>
<svg width="65px" height="96px" viewBox="0 0 65 96" version="1.1" xmlns="http://www.w3.org/2000/svg" xmlns:xlink="http://www.w3.org/1999/xlink">
    <!-- Generator: Sketch 46.2 (44496) - http://www.bohemiancoding.com/sketch -->
    <title>usb</title>
    <desc>Created with Sketch.</desc>
    <defs></defs>
    <g id="Page-1" stroke="none" stroke-width="1" fill="none" fill-rule="evenodd" fill-opacity="0.5">
        <g id="iPhone-7" transform="translate(-231.000000, -7939.000000)" fill-rule="nonzero" fill="#898D90">
            <g id="block_tech" transform="translate(0.000000, 7534.000000)">
                <g id="include" transform="translate(63.000000, 405.000000)">
                    <g id="usb" transform="translate(152.000000, 0.000000)">
                        <g transform="translate(16.000000, 0.000000)" id="Shape">
                            <path d="M46.1988909,27.1497227 L46.1988909,45.2495379 L50.7238447,45.2495379 L50.7238447,54.2994455 L37.1489834,54.2994455 L37.1489834,18.0998152 L46.1988909,18.0998152 L32.6240296,0 L19.0491682,18.0998152 L28.0990758,18.0998152 L28.0990758,54.2994455 L14.5242144,54.2994455 L14.5242144,44.7970425 C17.6916821,43.4395564 19.954159,39.8195933 19.954159,36.1996303 C19.954159,30.7696858 15.4292052,26.244732 9.99926063,26.244732 C4.56931608,26.244732 0.0443622921,30.7696858 0.0443622921,36.1996303 C0.0443622921,39.8195933 2.30683919,43.4395564 5.47430684,44.7970425 L5.47430684,54.2994455 C5.47430684,59.2768946 9.54676525,63.349353 14.5242144,63.349353 L28.0990758,63.349353 L28.0990758,77.3767098 C24.9316081,79.1866913 22.6691312,82.354159 22.6691312,85.974122 C22.6691312,91.4040665 27.194085,95.9290203 32.6240296,95.9290203 C38.0539741,95.9290203 42.5789279,91.4040665 42.5789279,85.974122 C42.5789279,81.9016636 40.316451,78.7341959 37.1489834,77.3767098 L37.1489834,63.349353 L50.7238447,63.349353 C55.7014713,63.349353 59.7737523,59.2768946 59.7737523,54.2994455 L59.7737523,45.2495379 L64.2987061,45.2495379 L64.2987061,27.1497227 L46.1988909,27.1497227 Z"></path>
                        </g>
                    </g>
                </g>
            </g>
        </g>
    </g>
</svg>