<?xml version="1.0" encoding="utf-8"?>
<!-- Generator: Adobe Illustrator 22.0.0, SVG Export Plug-In . SVG Version: 6.00 Build 0)  -->
<svg version="1.1" id="Calque_1" xmlns="http://www.w3.org/2000/svg" xmlns:xlink="http://www.w3.org/1999/xlink" x="0px" y="0px"
	 viewBox="0 0 24 30" style="enable-background:new 0 0 24 30;" xml:space="preserve">
<style type="text/css">
	.st0{fill:#FFFFFF;}
</style>
<g>
	<g>
		<path class="st0" d="M12,6.4c-1-0.7-2.3-0.5-3.2,0.3c-1,1-1,2.6,0,3.5l3.2,3.2l3.2-3.2c1-1,1-2.6,0-3.5C14.3,5.9,13,5.8,12,6.4z"
			/>
		<path class="st0" d="M19,2H5C3.3,2,2,3.3,2,5v10c0,1.7,1.3,3,3,3h6v2H7v2h10v-2h-4v-2h6c1.7,0,3-1.3,3-3V5C22,3.3,20.7,2,19,2z
			 M20,15c0,0.6-0.4,1-1,1H5c-0.6,0-1-0.4-1-1V5c0-0.6,0.4-1,1-1h14c0.6,0,1,0.4,1,1V15z"/>
		<path class="st0" d="M13.8,8.9"/>
	</g>
</g>
</svg>
