<?xml version="1.0" encoding="UTF-8"?>
<svg width="96px" height="96px" viewBox="0 0 96 96" version="1.1" xmlns="http://www.w3.org/2000/svg" xmlns:xlink="http://www.w3.org/1999/xlink">
    <!-- Generator: Sketch 46.2 (44496) - http://www.bohemiancoding.com/sketch -->
    <title>quick_start</title>
    <desc>Created with Sketch.</desc>
    <defs></defs>
    <g id="Page-1" stroke="none" stroke-width="1" fill="none" fill-rule="evenodd" fill-opacity="0.5">
        <g id="iPhone-7" transform="translate(-63.000000, -8084.000000)" fill-rule="nonzero">
            <g id="block_tech" transform="translate(0.000000, 7534.000000)">
                <g id="include" transform="translate(63.000000, 405.000000)">
                    <g id="usb" transform="translate(0.000000, 145.000000)">
                        <g id="quick_start">
                            <path d="M39.5459883,78.7444706 C38.5803523,79.2658824 37.7086497,79.7534118 36.8219178,80.2108235 C35.5519374,80.8677647 34.4040705,80.7152941 33.3877104,79.7007059 C27.7354207,74.0536471 22.0900196,68.3978039 16.4515068,62.7331765 C15.4182387,61.696 15.2717025,60.5364706 15.9574168,59.2094118 C16.3895108,58.3755294 16.8441487,57.5529412 17.2837573,56.7247059 C17.3100587,56.6757647 17.2931507,56.6042353 17.3006654,56.4724706 C15.4050881,55.4051765 13.462544,54.3209412 11.525636,53.2404706 C8.35068493,51.4723137 5.18074364,49.7047843 2.01581213,47.9378824 C-0.15592955,46.7237647 -0.413307241,44.768 1.35452055,43.0268235 C8.41080235,36.0771765 16.4872016,30.8197647 26.0853229,28.1054118 C30.0889075,26.9429296 34.2435411,26.3871309 38.411272,26.4564706 C38.8322021,26.4588287 39.2403034,26.3114107 39.5628963,26.0404706 C50.6151076,15.5670588 63.6286497,8.47058824 77.998591,3.79670588 C82.6821135,2.27576471 87.5328376,1.25364706 92.3347162,0.122352941 C94.829589,-0.464941176 96.3607045,1.12564706 95.8854012,3.64235294 C92.6634834,20.6964706 86.0900196,36.2842353 75.4943249,50.0818824 C73.8035225,52.2898824 71.8647358,54.3134118 70.063092,56.4404706 C69.8226223,56.7247059 69.5708806,57.1312941 69.5765166,57.4776471 C69.7380822,67.3411765 66.6044618,76.1976471 61.4099413,84.4216471 C58.9902153,88.2522353 56.1045793,91.7176471 52.9258708,94.9383529 C51.3214873,96.5647059 49.3282192,96.2785882 48.1991389,94.2550588 C45.4249706,89.2693333 42.6551859,84.2873725 39.8897847,79.3091765 C39.7996086,79.1472941 39.6981605,78.9929412 39.5459883,78.7444706 Z M82.8981605,26.8461176 C82.7516243,26.6691765 82.6107241,26.4696471 82.4416438,26.2983529 C78.2171429,22.0592941 73.9932681,17.8196078 69.7700196,13.5792941 C69.4093151,13.216 69.1275147,13.1294118 68.642818,13.3515294 C57.7465362,18.3284706 47.9192172,24.8338824 39.7545205,33.7223529 C32.5949119,41.5058824 27.0396869,50.3849412 21.9804305,59.6103529 C21.6535421,60.2051765 21.9522505,60.4536471 22.2866536,60.7887059 C26.6501761,65.1532549 31.0093151,69.523451 35.3640705,73.8992941 C35.8018004,74.3416471 36.1155382,74.3736471 36.6378082,74.0668235 C40.5830137,71.7025882 44.5939726,69.4475294 48.4734247,66.9967059 C63.7920939,57.344 75.1442661,44.2352941 82.5299413,27.6705882 C82.6426614,27.4127059 82.7591389,27.1567059 82.8981605,26.8461176 Z M44.3572603,76.0207059 L51.3534247,88.5872941 C58.0076712,80.9938824 62.5446575,72.5647059 63.9010568,62.3265882 C57.7596869,67.6367059 51.2331898,72.0188235 44.3572603,76.0207059 Z M20.1017613,51.7270588 C24.1052055,44.8395294 28.4674755,38.2945882 33.7803523,32.1505882 C23.5491194,33.5247059 15.1289237,38.0592941 7.57667319,44.736 L20.1017613,51.7270588 Z M89.7477886,6.24941176 C84.742082,7.38168567 79.8256597,8.87900733 75.0378082,10.7294118 L85.3028571,21.0127059 C87.1355143,16.2046364 88.6209834,11.2708333 89.7477886,6.24941176 L89.7477886,6.24941176 Z" id="Shape" fill="#898D90"></path>
                            <path d="M4.90332681,93.9162353 C3.61831703,93.8277647 2.89690802,93.3948235 2.4948728,92.5176471 C2.0665362,91.5915294 2.25440313,90.7294118 2.93260274,89.9990588 C3.90011742,88.9750588 4.91459883,87.9962353 5.91029354,86.9985882 C8.21103718,84.6933333 10.512407,82.3893333 12.8144031,80.0865882 C13.8100978,79.0945882 14.9542074,78.9571765 15.9386301,79.6536471 C17.1747945,80.5364706 17.2536986,82.1195294 16.0682583,83.3167059 C13.9810568,85.4343529 11.8713112,87.5294118 9.76908023,89.6357647 C8.64187867,90.7651765 7.54473581,91.9303529 6.37056751,93.0108235 C5.88962818,93.4512941 5.24336595,93.7129412 4.90332681,93.9162353 Z" id="Shape" fill="#8B9398"></path>
                            <path d="M3.64649706,81.8936471 C2.28446184,81.8729412 1.57996086,81.4249412 1.17228963,80.5496471 C0.744560247,79.7064259 0.921116521,78.6817701 1.60626223,78.0310588 C2.7334638,76.8564706 3.89636008,75.7176471 5.04610568,74.5656471 C7.16900196,72.4323137 9.29252446,70.3058824 11.4166732,68.1863529 C12.5607828,67.0456471 13.9265753,66.9477647 14.899726,67.9134118 C15.8728767,68.8790588 15.820274,70.2588235 14.6855577,71.3995294 C11.49182,74.6164706 8.28681018,77.8409412 5.05174168,81.024 C4.59146771,81.4757647 3.93205479,81.7223529 3.64649706,81.8936471 Z" id="Shape" fill="#8B9398"></path>
                            <path d="M16.8929941,95.2470588 C15.6023483,95.1623529 14.8565166,94.7651765 14.4676321,93.8710588 C14.0787476,92.9769412 14.1820744,92.0752941 14.8809393,91.3468235 C15.9198434,90.2625882 16.9963209,89.2122353 18.0558904,88.1468235 C20.2664579,85.9306667 22.4776517,83.7151373 24.6894716,81.5002353 C25.8448532,80.3463529 27.1730724,80.2390588 28.1668885,81.2084706 C29.1607045,82.1778824 29.072407,83.5934118 27.9038748,84.768 C24.7458317,87.9397647 21.5953033,91.1190588 18.4053229,94.2588235 C17.9225049,94.7369412 17.2499413,95.0192941 16.8929941,95.2470588 Z" id="Shape" fill="#8B9398"></path>
                            <path d="M64.81409,21.024 C68.4770761,21.0273625 71.8600244,22.9884811 73.6886111,26.1686214 C75.5171979,29.3487617 75.5136171,33.2647848 73.6792178,36.4415626 C71.8448185,39.6183404 68.4582894,41.5732449 64.7953033,41.5698824 C59.1592955,41.5830588 54.509589,36.992 54.498317,31.4202353 C54.481409,25.5792941 59.0052446,21.0296471 64.81409,21.024 Z M64.7182779,26.5148235 C62.1180044,26.5492826 60.0184229,28.6529809 59.9840313,31.2583529 C59.9671233,33.8672941 62.1632877,36.0828235 64.7539726,36.0734118 C66.4800564,36.1006493 68.0861277,35.1913099 68.9533911,33.6957485 C69.8206546,32.2001871 69.8137508,30.3518255 68.9353399,28.8628098 C68.0569289,27.3737942 66.4441098,26.4765247 64.7182779,26.5167059 L64.7182779,26.5148235 Z" id="Shape" fill="#8B9398"></path>
                        </g>
                    </g>
                </g>
            </g>
        </g>
    </g>
</svg>