<?xml version="1.0" encoding="UTF-8"?>
<svg width="96px" height="96px" viewBox="0 0 96 96" version="1.1" xmlns="http://www.w3.org/2000/svg" xmlns:xlink="http://www.w3.org/1999/xlink">
    <!-- Generator: Sketch 46.2 (44496) - http://www.bohemiancoding.com/sketch -->
    <title>Group</title>
    <desc>Created with Sketch.</desc>
    <defs></defs>
    <g id="Page-1" stroke="none" stroke-width="1" fill="none" fill-rule="evenodd" fill-opacity="0.5">
        <g id="iPhone-7" transform="translate(-63.000000, -7939.000000)" fill-rule="nonzero" fill="#898D90">
            <g id="block_tech" transform="translate(0.000000, 7534.000000)">
                <g id="include" transform="translate(63.000000, 405.000000)">
                    <g id="usb">
                        <g id="soft">
                            <g id="Group">
                                <path d="M48,21.3024 C43.4352,18.1584 36.7296,18.7056 32.7216,22.7184 C28.0464,27.3984 28.0464,35.0112 32.7264,39.6912 L48,54.9552 L63.2784,39.6816 C67.9536,35.0016 67.9536,27.3888 63.2784,22.7136 C59.2656,18.7008 52.5696,18.1536 48,21.3024 Z" id="Shape"></path>
                                <path d="M81.6,0 L14.4,0 C6.4608,0 0,6.4608 0,14.4 L0,62.4 C0,70.3392 6.4608,76.8 14.4,76.8 L43.2,76.8 L43.2,86.4 L24,86.4 L24,96 L72,96 L72,86.4 L52.8,86.4 L52.8,76.8 L81.6,76.8 C89.5392,76.8 96,70.3392 96,62.4 L96,14.4 C96,6.4608 89.5392,0 81.6,0 Z M86.4,62.4 C86.4,65.0496 84.2448,67.2 81.6,67.2 L14.4,67.2 C11.7552,67.2 9.6,65.0496 9.6,62.4 L9.6,14.4 C9.6,11.7504 11.7552,9.6 14.4,9.6 L81.6,9.6 C84.2448,9.6 86.4,11.7504 86.4,14.4 L86.4,62.4 Z" id="Shape"></path>
                            </g>
                        </g>
                    </g>
                </g>
            </g>
        </g>
    </g>
</svg>