<?xml version="1.0" encoding="utf-8"?>
<!-- Generator: Adobe Illustrator 22.0.0, SVG Export Plug-In . SVG Version: 6.00 Build 0)  -->
<svg version="1.1" id="Capa_1" xmlns="http://www.w3.org/2000/svg" xmlns:xlink="http://www.w3.org/1999/xlink" x="0px" y="0px"
	 viewBox="0 0 540.6 540.6" style="enable-background:new 0 0 540.6 540.6;" xml:space="preserve">
<style type="text/css">
	.st0{fill:#FFFFFF;}
</style>
<g>
	<g id="usb">
		<path class="st0" d="M349.4,153v102h25.5v51h-76.5V102h51L272.9,0l-76.5,102h51v204h-76.5v-53.6c17.9-7.6,30.6-28.1,30.6-48.4
			c0-30.6-25.5-56.1-56.1-56.1S89.3,173.4,89.3,204c0,20.4,12.8,40.8,30.6,48.4V306c0,28,22.9,51,51,51h76.5v79
			c-17.9,10.2-30.6,28-30.6,48.5c0,30.6,25.5,56.1,56.1,56.1s56.1-25.5,56.1-56.1c0-23-12.8-40.8-30.6-48.5v-79h76.5
			c28.1,0,51-23,51-51v-51h25.5V153H349.4z"/>
	</g>
</g>
</svg>
