<?xml version="1.0" encoding="utf-8"?>
<!-- Generator: Adobe Illustrator 22.0.0, SVG Export Plug-In . SVG Version: 6.00 Build 0)  -->
<svg version="1.1" id="Calque_1" xmlns="http://www.w3.org/2000/svg" xmlns:xlink="http://www.w3.org/1999/xlink" x="0px" y="0px"
	 viewBox="0 0 509.9 509.9" style="enable-background:new 0 0 509.9 509.9;" xml:space="preserve">
<style type="text/css">
	.st0{opacity:0.5;}
	.st1{fill:#FFFFFF;}
</style>
<title>quick_start</title>
<g id="Calque_2_1_" class="st0">
	<g id="Calque_1-2">
		<path class="st1" d="M209.5,418.3c-5.1,2.8-9.8,5.4-14.5,7.8c-6.8,3.5-12.9,2.7-18.3-2.7c-30.1-30-60.1-60-90.2-90.1
			c-5.5-5.5-6.3-11.7-2.6-18.7c2.3-4.4,4.7-8.8,7.1-13.2c0.1-0.3,0.1-0.6,0.1-1.3c-10.1-5.7-20.4-11.4-30.7-17.2
			c-16.9-9.4-33.8-18.8-50.6-28.2c-11.6-6.4-12.9-16.8-3.5-26.1c37.6-36.9,80.6-64.8,131.6-79.3c21.3-6.2,43.4-9.1,65.6-8.8
			c2.2,0,4.4-0.8,6.1-2.2C268.4,82.7,337.7,45,414.2,20.2c24.9-8.1,50.8-13.5,76.3-19.5c13.3-3.1,21.4,5.3,18.9,18.7
			c-17.1,90.6-52.1,173.4-108.5,246.7c-9,11.7-19.3,22.5-28.9,33.8c-1.3,1.5-2.6,3.7-2.6,5.5c0.9,52.4-15.8,99.4-43.5,143.1
			c-12.9,20.4-28.2,38.8-45.2,55.9c-8.5,8.6-19.1,7.1-25.2-3.6c-14.8-26.5-29.5-53-44.2-79.4C210.9,420.5,210.3,419.6,209.5,418.3z
			 M440.3,142.6c-0.8-0.9-1.5-2-2.4-2.9c-22.5-22.5-45-45-67.5-67.6c-1.9-1.9-3.4-2.4-6-1.2c-58,26.4-110.3,61-153.8,108.2
			c-38.1,41.4-67.7,88.5-94.6,137.5c-1.7,3.2-0.2,4.5,1.6,6.3c23.2,23.2,46.4,46.4,69.6,69.6c2.3,2.4,4,2.5,6.8,0.9
			c21-12.6,42.4-24.5,63-37.6C338.6,304.6,399,235,438.3,147C438.9,145.6,439.5,144.3,440.3,142.6z M235.1,403.9l37.2,66.8
			c35.4-40.3,59.6-85.1,66.8-139.5C306.5,359.3,271.7,382.6,235.1,403.9z M106,274.8c21.3-36.6,44.5-71.4,72.8-104
			c-54.5,7.3-99.3,31.4-139.5,66.9L106,274.8z M476.7,33.2c-26.6,6-52.8,14-78.3,23.8l54.6,54.6C462.8,86.1,470.7,59.9,476.7,33.2z"
			/>
		<path class="st1" d="M25.1,498.9c-6.8-0.5-10.7-2.8-12.8-7.4c-2.3-4.9-1.3-9.5,2.3-13.4c5.2-5.4,10.6-10.6,15.8-15.9
			c12.2-12.2,24.5-24.5,36.8-36.7c5.3-5.3,11.4-6,16.6-2.3c6.6,4.7,7,13.1,0.7,19.5C73.4,453.9,62.2,465,51,476.2
			c-6,6-11.8,12.2-18.1,17.9C30.4,496.5,26.9,497.9,25.1,498.9z"/>
		<path class="st1" d="M18.4,435.1c-7.2-0.1-11-2.5-13.2-7.1c-2.3-4.5-1.3-9.9,2.3-13.4c6-6.2,12.2-12.3,18.3-18.4
			c11.3-11.3,22.6-22.6,33.9-33.9c6.1-6.1,13.4-6.6,18.5-1.5s4.9,12.5-1.1,18.5c-17,17.1-34.1,34.2-51.3,51.1
			C23.4,432.8,19.9,434.1,18.4,435.1z"/>
		<path class="st1" d="M88.9,506c-6.9-0.5-10.8-2.6-12.9-7.3s-1.5-9.5,2.2-13.4c5.5-5.8,11.3-11.3,16.9-17
			c11.8-11.8,23.5-23.5,35.3-35.3c6.1-6.1,13.2-6.7,18.5-1.5s4.8,12.7-1.4,18.9c-16.8,16.9-33.6,33.7-50.6,50.4
			C94.4,503.3,90.8,504.8,88.9,506z"/>
		<path class="st1" d="M344,111.7c30.1,0,54.6,24.5,54.5,54.6s-24.5,54.6-54.6,54.5c-30,0.1-54.8-24.3-54.8-53.9
			C289,135.9,313.1,111.7,344,111.7z M343.5,140.9c-13.8,0.2-25,11.4-25.2,25.2c-0.1,13.9,11.6,25.6,25.4,25.6
			c14,0.2,25.6-11,25.8-25c0.2-14-11-25.6-25-25.8C344.1,140.9,343.8,140.9,343.5,140.9L343.5,140.9z"/>
	</g>
</g>
</svg>
